<svg width="109" height="30" viewBox="0 0 109 30" fill="none" xmlns="http://www.w3.org/2000/svg">
<path d="M8.71757 11.5129L5.08147 21.4587H12.5675L8.71757 11.5129ZM9.68006 9.16016L17.2731 28.7309H15.3481L12.9953 22.849H4.54676L2.40788 28.7309H0.696777L7.75507 9.16016H9.68006Z" fill="#0A083B"/>
<path d="M26.0425 28.7309V9.16016H36.6299V10.4435H27.8605V18.0365H33.7424V19.3198H27.8605V27.3406H37.2716V28.7309H26.0425Z" fill="#0A083B"/>
<path d="M46.1481 26.4849C46.7897 26.8058 47.5384 27.0197 48.18 27.2335C49.0356 27.4474 49.9981 27.6613 50.9606 27.6613C52.3508 27.6613 53.6342 27.4474 54.7036 26.6988C55.5591 26.0572 55.9869 25.0947 55.9869 24.1322C55.9869 21.8864 54.1689 20.2822 50.6397 19.3197C47.1106 18.3572 45.2925 16.4322 45.3995 13.4378C45.3995 12.0475 46.0411 10.8711 47.1106 10.0156C48.3939 9.05309 49.8911 8.51837 51.4953 8.62531C52.4578 8.62531 53.3133 8.73225 54.1689 8.94614C54.9175 9.16003 55.6661 9.37392 56.3078 9.69475L55.6661 11.085C55.1314 10.8711 54.5967 10.6572 53.955 10.4434C53.2064 10.2295 52.3508 10.1225 51.4953 10.1225C50.3189 10.1225 49.2495 10.3364 48.287 10.9781C47.6453 11.4059 47.2175 12.4753 47.2175 13.4378C47.2175 15.6836 49.0356 17.3947 52.5647 18.3572C56.0939 19.3197 57.9119 21.2447 57.805 24.1322C57.805 25.5224 57.2702 26.8058 55.9869 27.6613C54.4897 28.7308 52.9925 29.0516 51.2814 29.0516C50.3189 29.0516 49.0356 28.9446 48.0731 28.7308C47.3245 28.5169 46.4689 28.196 45.8272 27.7683L46.1481 26.4849Z" fill="#0A083B"/>
<path d="M69.7829 9.16016H67.9648V28.7309H69.7829V9.16016Z" fill="#0A083B"/>
<path d="M93.2033 28.6239L88.6047 20.2823C88.6047 20.2823 87.6422 20.3893 86.3589 20.3893H83.4714V28.517H81.6533V9.16016H86.6797C88.3908 9.16016 90.2088 9.48099 91.706 10.4435C93.0963 11.406 93.8449 13.0101 93.738 14.7212C93.738 15.8976 93.4171 16.9671 92.7755 17.9296C92.1338 18.7851 91.2783 19.5337 90.2088 19.8545L95.2352 28.6239H93.2033ZM86.6797 10.6574H83.3644V18.892H86.3589C88.07 18.892 89.2463 18.5712 90.2088 18.0365C91.3852 17.3948 91.9199 16.3254 91.9199 14.7212C91.9199 13.1171 91.5991 11.9407 90.5297 11.406C89.2463 10.8713 88.2838 10.6574 86.6797 10.6574Z" fill="#0A083B"/>
<path fill-rule="evenodd" clip-rule="evenodd" d="M101.462 20.7525V0.948242H103.272V20.7525H101.462Z" fill="#0A083B"/>
<path fill-rule="evenodd" clip-rule="evenodd" d="M107.394 16.9483L96.5913 5.73044L97.8949 4.4751L108.697 15.6929L107.394 16.9483Z" fill="#0A083B"/>
</svg>
