<svg width="18" height="14" viewBox="0 0 18 14" fill="none" xmlns="http://www.w3.org/2000/svg">
<path d="M6.2773 10.2211C6.57 10.5142 6.56967 10.9891 6.27658 11.2818C5.98349 11.5745 5.50861 11.5742 5.21592 11.2811L0.219308 6.27761C-0.0732226 5.98468 -0.0730849 5.51013 0.219615 5.21737L5.21623 0.219725C5.50909 -0.0731987 5.98396 -0.0732479 6.27689 0.219615C6.56981 0.512478 6.56986 0.987352 6.277 1.28028L2.557 5H10.3988C11.9936 5 13.2099 5.24197 14.2878 5.76446L14.5342 5.89004C15.6427 6.48286 16.5171 7.35729 17.11 8.46576C17.7194 9.60527 18 10.8837 18 12.6012C18 13.0154 17.6642 13.3512 17.25 13.3512C16.8358 13.3512 16.5 13.0154 16.5 12.6012C16.5 11.1174 16.2723 10.0802 15.7872 9.17316C15.3342 8.32609 14.6739 7.66578 13.8268 7.21276C12.9895 6.76497 12.0414 6.53655 10.7334 6.50406L10.3988 6.5H2.562L6.2773 10.2211Z" fill="#5F5E70"/>
</svg>
