<svg width="18" height="18" viewBox="0 0 18 18" fill="none" xmlns="http://www.w3.org/2000/svg">
<path d="M9.00008 17.3337C4.39758 17.3337 0.666748 13.6028 0.666748 9.00033C0.666748 4.39783 4.39758 0.666992 9.00008 0.666992C13.6026 0.666992 17.3334 4.39783 17.3334 9.00033C17.3334 13.6028 13.6026 17.3337 9.00008 17.3337ZM9.00008 15.667C10.7682 15.667 12.4639 14.9646 13.7141 13.7144C14.9644 12.4641 15.6667 10.7684 15.6667 9.00033C15.6667 7.23222 14.9644 5.53652 13.7141 4.28628C12.4639 3.03604 10.7682 2.33366 9.00008 2.33366C7.23197 2.33366 5.53628 3.03604 4.28604 4.28628C3.03579 5.53652 2.33341 7.23222 2.33341 9.00033C2.33341 10.7684 3.03579 12.4641 4.28604 13.7144C5.53628 14.9646 7.23197 15.667 9.00008 15.667ZM8.16675 4.83366H9.83342V6.50033H8.16675V4.83366ZM8.16675 8.16699H9.83342V13.167H8.16675V8.16699Z" fill="#222328"/>
</svg>
